HIERARCHY
ROOT Hips
{
	OFFSET 0.000000 71.427986 0.000000
	CHANNELS 6 Xposition Yposition Zposition Xrotation Yrotation Zrotation
	JOINT Pelvis
	{
		OFFSET 0.000000 0.000000 0.000000
		CHANNELS 3 Xrotation Yrotation Zrotation
		JOINT LeftUpLeg
		{
			OFFSET 6.797100 -2.508499 -1.318700
			CHANNELS 3 Xrotation Yrotation Zrotation
			JOINT LeftLeg
			{
				OFFSET 0.069008 -29.241863 0.690200
				CHANNELS 3 Xrotation Yrotation Zrotation
				JOINT LeftFoot
				{
					OFFSET -0.069008 -29.568123 -0.266800
					CHANNELS 3 Xrotation Yrotation Zrotation
					JOINT LeftToeBase
					{
						OFFSET 3.145500 -8.631000 16.059900
						CHANNELS 3 Xrotation Yrotation Zrotation
						End Site
						{
							OFFSET 0.000000 18.501587 0.000000
						}
					}
				}
			}
			JOINT Left_ShortSleeve
			{
				OFFSET 0.265923 -10.480953 1.153800
				CHANNELS 3 Xrotation Yrotation Zrotation
				End Site
				{
					OFFSET 1.725763 19.823879 0.000000
				}
			}
		}
		JOINT RightUpLeg
		{
			OFFSET -6.797100 -2.508499 -1.318700
			CHANNELS 3 Xrotation Yrotation Zrotation
			JOINT RightLeg
			{
				OFFSET -0.082453 -29.241932 0.688000
				CHANNELS 3 Xrotation Yrotation Zrotation
				JOINT RightFoot
				{
					OFFSET 0.082453 -29.568058 -0.264600
					CHANNELS 3 Xrotation Yrotation Zrotation
					JOINT RightToeBase
					{
						OFFSET -3.115300 -8.682800 16.113400
						CHANNELS 3 Xrotation Yrotation Zrotation
						End Site
						{
							OFFSET 0.000000 18.567114 0.000000
						}
					}
				}
			}
			JOINT Right_ShortSleeve
			{
				OFFSET -0.265923 -10.480953 1.153800
				CHANNELS 3 Xrotation Yrotation Zrotation
				End Site
				{
					OFFSET -1.725766 19.823910 0.000000
				}
			}
		}
	}
	JOINT Spine
	{
		OFFSET 0.000000 13.368103 0.470500
		CHANNELS 3 Xrotation Yrotation Zrotation
		JOINT Spine1
		{
			OFFSET 0.147000 13.837402 0.538800
			CHANNELS 3 Xrotation Yrotation Zrotation
			JOINT Spine2
			{
				OFFSET 0.168000 16.242897 -1.435500
				CHANNELS 3 Xrotation Yrotation Zrotation
				JOINT Neck
				{
					OFFSET 0.217200 18.631500 -1.679100
					CHANNELS 3 Xrotation Yrotation Zrotation
					JOINT Head
					{
						OFFSET 0.000000 6.599396 1.385900
						CHANNELS 3 Xrotation Yrotation Zrotation
						JOINT Hat
						{
							OFFSET -0.532200 27.220596 -10.096100
							CHANNELS 3 Xrotation Yrotation Zrotation
							End Site
							{
								OFFSET 0.000000 22.029861 0.000000
							}
						}
						JOINT HairD
						{
							OFFSET -10.777400 17.437393 -1.325900
							CHANNELS 3 Xrotation Yrotation Zrotation
							JOINT HairD1
							{
								OFFSET -3.290299 -11.051193 1.062200
								CHANNELS 3 Xrotation Yrotation Zrotation
								End Site
								{
									OFFSET 0.000000 11.579437 0.000000
								}
							}
						}
						JOINT HairB
						{
							OFFSET -10.777400 17.437393 1.467900
							CHANNELS 3 Xrotation Yrotation Zrotation
							JOINT HairB1
							{
								OFFSET -1.561200 -12.956299 3.590200
								CHANNELS 3 Xrotation Yrotation Zrotation
								End Site
								{
									OFFSET 0.000000 13.534866 0.000000
								}
							}
						}
						JOINT HairA
						{
							OFFSET 9.713100 17.437393 1.467900
							CHANNELS 3 Xrotation Yrotation Zrotation
							JOINT HairA1
							{
								OFFSET 1.561200 -12.956299 3.590200
								CHANNELS 3 Xrotation Yrotation Zrotation
								End Site
								{
									OFFSET 0.000000 13.534866 0.000000
								}
							}
						}
						JOINT HairC
						{
							OFFSET 9.713100 17.437393 -1.325900
							CHANNELS 3 Xrotation Yrotation Zrotation
							JOINT HairC1
							{
								OFFSET 3.290300 -11.051193 1.062200
								CHANNELS 3 Xrotation Yrotation Zrotation
								End Site
								{
									OFFSET 0.000000 11.579437 0.000000
								}
							}
						}
					}
				}
				JOINT LeftShoulder
				{
					OFFSET 5.101800 15.108002 -2.763700
					CHANNELS 3 Xrotation Yrotation Zrotation
					JOINT LeftArm
					{
						OFFSET 9.825497 2.506317 -1.597400
						CHANNELS 3 Xrotation Yrotation Zrotation
						JOINT LeftForeArm
						{
							OFFSET 21.966244 0.000000 0.000000
							CHANNELS 3 Xrotation Yrotation Zrotation
							JOINT LeftHand
							{
								OFFSET 33.879036 0.000000 0.000000
								CHANNELS 3 Xrotation Yrotation Zrotation
								JOINT LeftHandThumb1
								{
									OFFSET 6.715286 -2.359680 3.363841
									CHANNELS 3 Xrotation Yrotation Zrotation
									JOINT LeftHandThumb2
									{
										OFFSET 2.507072 -1.447464 1.447461
										CHANNELS 3 Xrotation Yrotation Zrotation
										JOINT LeftHandThumb3
										{
											OFFSET 2.898338 -1.673355 1.673357
											CHANNELS 3 Xrotation Yrotation Zrotation
											End Site
											{
												OFFSET -0.295959 3.727692 -0.131651
											}
										}
									}
								}
								JOINT LeftHandIndex1
								{
									OFFSET 14.190811 -0.254547 3.840278
									CHANNELS 3 Xrotation Yrotation Zrotation
									JOINT LeftHandIndex2
									{
										OFFSET 3.551727 0.000000 -0.000000
										CHANNELS 3 Xrotation Yrotation Zrotation
										JOINT LeftHandIndex3
										{
											OFFSET 2.894196 0.000000 0.000000
											CHANNELS 3 Xrotation Yrotation Zrotation
											End Site
											{
												OFFSET -1.000603 2.690872 0.366626
											}
										}
									}
								}
								JOINT LeftHandMiddle1
								{
									OFFSET 13.776489 0.000000 0.000000
									CHANNELS 3 Xrotation Yrotation Zrotation
									JOINT LeftHandMiddle2
									{
										OFFSET 3.438232 0.000000 0.000000
										CHANNELS 3 Xrotation Yrotation Zrotation
										JOINT LeftHandMiddle3
										{
											OFFSET 3.691551 0.000000 0.000000
											CHANNELS 3 Xrotation Yrotation Zrotation
											End Site
											{
												OFFSET -1.082298 3.499527 0.457670
											}
										}
									}
								}
								JOINT LeftHandRing1
								{
									OFFSET 13.966164 -0.268127 -3.067488
									CHANNELS 3 Xrotation Yrotation Zrotation
									JOINT LeftHandRing2
									{
										OFFSET 3.162567 0.000000 0.000000
										CHANNELS 3 Xrotation Yrotation Zrotation
										JOINT LeftHandRing3
										{
											OFFSET 3.324348 0.000000 0.000000
											CHANNELS 3 Xrotation Yrotation Zrotation
											End Site
											{
												OFFSET -0.861900 3.184998 0.405154
											}
										}
									}
								}
								JOINT LeftHandPinky1
								{
									OFFSET 13.131393 -0.168503 -5.746925
									CHANNELS 3 Xrotation Yrotation Zrotation
									JOINT LeftHandPinky2
									{
										OFFSET 2.849182 0.000000 0.000000
										CHANNELS 3 Xrotation Yrotation Zrotation
										JOINT LeftHandPinky3
										{
											OFFSET 2.805038 0.000000 0.000000
											CHANNELS 3 Xrotation Yrotation Zrotation
											End Site
											{
												OFFSET -0.882500 2.642609 0.325652
											}
										}
									}
								}
							}
							JOINT Left_Sleeve
							{
								OFFSET 6.592125 -0.646545 0.805568
								CHANNELS 3 Xrotation Yrotation Zrotation
								End Site
								{
									OFFSET -0.000179 20.275787 -0.000000
								}
							}
						}
					}
				}
				JOINT RightShoulder
				{
					OFFSET -5.731700 15.108002 -2.763700
					CHANNELS 3 Xrotation Yrotation Zrotation
					JOINT RightArm
					{
						OFFSET -9.825497 2.506317 -1.597400
						CHANNELS 3 Xrotation Yrotation Zrotation
						JOINT RightForeArm
						{
							OFFSET -21.966242 0.000000 0.000000
							CHANNELS 3 Xrotation Yrotation Zrotation
							JOINT RightHand
							{
								OFFSET -33.879032 0.000000 0.000000
								CHANNELS 3 Xrotation Yrotation Zrotation
								JOINT RightHandThumb1
								{
									OFFSET -6.715286 -2.359680 3.363841
									CHANNELS 3 Xrotation Yrotation Zrotation
									JOINT RightHandThumb2
									{
										OFFSET -2.507072 -1.447464 1.447461
										CHANNELS 3 Xrotation Yrotation Zrotation
										JOINT RightHandThumb3
										{
											OFFSET -2.898338 -1.673355 1.673357
											CHANNELS 3 Xrotation Yrotation Zrotation
											End Site
											{
												OFFSET 0.295959 3.727692 -0.131651
											}
										}
									}
								}
								JOINT RightHandIndex1
								{
									OFFSET -14.190811 -0.254547 3.840278
									CHANNELS 3 Xrotation Yrotation Zrotation
									JOINT RightHandIndex2
									{
										OFFSET -3.551727 0.000000 -0.000000
										CHANNELS 3 Xrotation Yrotation Zrotation
										JOINT RightHandIndex3
										{
											OFFSET -2.894196 0.000000 0.000000
											CHANNELS 3 Xrotation Yrotation Zrotation
											End Site
											{
												OFFSET 1.000603 2.690872 0.366626
											}
										}
									}
								}
								JOINT RightHandMiddle1
								{
									OFFSET -13.776489 0.000000 0.000000
									CHANNELS 3 Xrotation Yrotation Zrotation
									JOINT RightHandMiddle2
									{
										OFFSET -3.438232 0.000000 0.000000
										CHANNELS 3 Xrotation Yrotation Zrotation
										JOINT RightHandMiddle3
										{
											OFFSET -3.691551 0.000000 0.000000
											CHANNELS 3 Xrotation Yrotation Zrotation
											End Site
											{
												OFFSET 1.082298 3.499527 0.457670
											}
										}
									}
								}
								JOINT RightHandRing1
								{
									OFFSET -13.966164 -0.268127 -3.067488
									CHANNELS 3 Xrotation Yrotation Zrotation
									JOINT RightHandRing2
									{
										OFFSET -3.162567 0.000000 0.000000
										CHANNELS 3 Xrotation Yrotation Zrotation
										JOINT RightHandRing3
										{
											OFFSET -3.324348 0.000000 0.000000
											CHANNELS 3 Xrotation Yrotation Zrotation
											End Site
											{
												OFFSET 0.861900 3.184998 0.405154
											}
										}
									}
								}
								JOINT RightHandPinky1
								{
									OFFSET -13.131393 -0.168503 -5.746925
									CHANNELS 3 Xrotation Yrotation Zrotation
									JOINT RightHandPinky2
									{
										OFFSET -2.849182 0.000000 0.000000
										CHANNELS 3 Xrotation Yrotation Zrotation
										JOINT RightHandPinky3
										{
											OFFSET -2.805038 0.000000 0.000000
											CHANNELS 3 Xrotation Yrotation Zrotation
											End Site
											{
												OFFSET 0.882500 2.642609 0.325652
											}
										}
									}
								}
							}
							JOINT Right_Sleeve
							{
								OFFSET -6.592125 -0.646545 0.805568
								CHANNELS 3 Xrotation Yrotation Zrotation
								End Site
								{
									OFFSET 0.000179 20.275787 -0.000000
								}
							}
						}
					}
				}
				JOINT Bind_Right_JacketString
				{
					OFFSET -3.534800 11.969597 7.200700
					CHANNELS 3 Xrotation Yrotation Zrotation
					JOINT Bind_Right_JacketString1
					{
						OFFSET -0.319900 -6.102600 2.794100
						CHANNELS 3 Xrotation Yrotation Zrotation
						End Site
						{
							OFFSET 0.000000 6.719452 0.000000
						}
					}
				}
				JOINT Bind_Left_JacketString
				{
					OFFSET 2.904800 11.969597 7.200700
					CHANNELS 3 Xrotation Yrotation Zrotation
					JOINT Bind_Left_JacketString1
					{
						OFFSET 0.364800 -5.904503 3.186800
						CHANNELS 3 Xrotation Yrotation Zrotation
						End Site
						{
							OFFSET 0.000000 6.719513 0.000000
						}
					}
				}
				JOINT HairE
				{
					OFFSET 5.915200 17.612701 -11.592200
					CHANNELS 3 Xrotation Yrotation Zrotation
					JOINT HairE1
					{
						OFFSET 0.289200 -7.171898 -1.284500
						CHANNELS 3 Xrotation Yrotation Zrotation
						End Site
						{
							OFFSET 0.000000 7.291756 0.000000
						}
					}
				}
				JOINT HairF
				{
					OFFSET -0.864800 17.612701 -11.592200
					CHANNELS 3 Xrotation Yrotation Zrotation
					JOINT HairF1
					{
						OFFSET 0.000000 -14.087097 -2.127501
						CHANNELS 3 Xrotation Yrotation Zrotation
						End Site
						{
							OFFSET 0.000000 14.246841 0.000000
						}
					}
				}
				JOINT HairG
				{
					OFFSET -8.087700 17.612701 -11.592200
					CHANNELS 3 Xrotation Yrotation Zrotation
					JOINT HairG1
					{
						OFFSET -0.293600 -6.081398 -0.910100
						CHANNELS 3 Xrotation Yrotation Zrotation
						End Site
						{
							OFFSET 0.000000 6.156120 0.000000
						}
					}
				}
			}
		}
	}
	JOINT Pouch
	{
		OFFSET 0.000000 4.394501 10.847300
		CHANNELS 3 Xrotation Yrotation Zrotation
		End Site
		{
			OFFSET 0.000000 21.880577 0.000000
		}
	}
	JOINT Bag
	{
		OFFSET -13.229000 4.813004 -0.593300
		CHANNELS 3 Xrotation Yrotation Zrotation
		End Site
		{
			OFFSET 0.000000 21.880577 0.000000
		}
	}
	JOINT OccupyGuyFacialAnim_Joint
	{
		OFFSET 1.000000 -70.206398 -1.655000
		CHANNELS 3 Xrotation Yrotation Zrotation
		End Site
		{
			OFFSET 0.000000 21.880577 0.000000
		}
	}
}
MOTION
Frames: 4
Frame Time: 0.033333
-5.226521 63.608566 112.881866 -5.132051 -9.887473 -4.505531 0.000000 -0.000001 -0.000000 5.493986 14.605533 9.662757 64.407823 17.007596 -1.603959 14.736330 -0.080087 2.367898 -0.000000 0.000001 0.000001 0.000000 0.000000 -0.000000 -35.060273 -4.888424 5.322319 44.552624 -3.992676 -0.241259 -4.516514 -8.399551 -3.045117 -0.000000 0.000000 0.000000 -0.000002 0.000000 -0.000001 10.154877 -2.308924 0.965286 2.681564 -4.574357 4.884257 2.804366 -4.189717 5.090127 -5.853745 11.421350 -5.586935 -0.695254 8.196990 -0.560546 0.000000 -0.000000 -0.000000 0.000000 -0.000000 -0.000000 0.000000 -0.000000 -0.000000 0.000000 -0.000000 -0.000000 0.000000 0.000000 -0.000000 0.000000 -0.000000 -0.000000 0.000000 0.000000 -0.000000 0.000000 -0.000000 -0.000000 0.000000 -0.000000 -0.000000 0.817176 -11.421154 -0.084290 -49.666783 0.471439 -47.066926 17.300026 -64.495017 18.388818 -51.106337 10.062306 5.041012 17.566808 -5.705075 -12.922684 10.837398 26.092030 8.643082 -0.000001 0.000001 -0.000000 13.842929 1.591173 -54.408273 0.344196 1.191518 -64.706931 0.000002 0.000002 -0.000002 7.132828 0.602188 -63.403772 1.793058 1.495542 -64.220867 0.000000 0.000001 0.000001 8.585322 2.120044 -75.409366 -0.209211 0.992663 -58.135490 -0.000000 0.000001 0.000004 10.226658 13.670189 -84.882319 0.884626 0.051204 -65.231264 0.000000 -0.000000 0.000003 -0.000001 0.000000 -0.000001 4.370195 2.514254 5.577974 7.502859 -13.704153 64.631048 9.001283 14.314792 -2.427523 5.739145 -1.063442 -4.333605 15.772312 -2.691637 -17.212987 -2.580698 -29.137259 8.178737 0.000001 -0.000002 0.000000 5.887588 -13.059151 15.686776 -2.091290 -2.538450 24.934927 -0.000002 -0.000003 -0.000000 1.462610 -15.173047 18.523716 0.262095 -5.150643 31.458916 -0.000000 -0.000002 0.000002 4.251612 -19.859035 15.582207 3.900929 -4.184314 36.237377 -0.000001 -0.000003 -0.000000 -0.003699 -23.655279 26.998761 10.725070 -2.561158 39.794502 -0.000002 0.000001 0.000001 -0.000001 -0.000003 -0.000000 0.000000 -0.000001 -0.000000 0.000000 -0.000001 -0.000000 0.000000 -0.000001 -0.000000 0.000000 -0.000001 -0.000000 0.000000 -0.000001 -0.000000 0.000000 -0.000001 -0.000000 0.000000 -0.000001 -0.000000 0.000000 -0.000001 -0.000000 0.000000 -0.000001 -0.000000 0.000000 -0.000001 -0.000000 0.000000 -0.000001 -0.000000 0.000000 -0.000001 -0.000000 0.000000 -0.000001 -0.000000 
-5.551425 64.489922 116.066605 -5.498386 -9.949881 -3.987178 -0.000000 -0.000001 0.000000 -1.716038 13.800699 11.680260 70.937607 11.303948 -1.852345 4.407381 -0.799207 -0.398711 -0.000001 -0.000001 -0.000001 -0.000000 -0.000000 0.000001 -31.650458 -4.627353 4.552874 45.388895 -3.546148 -0.217158 -8.300008 -8.209134 -2.649306 -0.000000 -0.000001 0.000000 -0.000000 -0.000002 0.000000 10.508757 -2.159318 0.059233 2.945935 -4.326017 4.802517 3.078055 -3.921837 4.996696 -5.291126 11.039916 -5.780067 -1.591470 7.816991 -0.208572 -0.000000 -0.000000 -0.000000 -0.000000 -0.000000 -0.000000 -0.000000 -0.000000 -0.000000 -0.000000 -0.000000 -0.000000 -0.000000 -0.000000 -0.000000 -0.000000 -0.000000 -0.000000 -0.000000 -0.000000 -0.000000 -0.000000 -0.000000 -0.000000 -0.000000 -0.000000 -0.000000 0.701426 -11.908116 -0.077169 -49.514948 0.189418 -46.677660 17.499563 -64.821623 18.763973 -51.077978 10.452717 5.269141 17.568483 -5.700116 -12.923194 10.838166 26.094109 8.643199 -0.000001 0.000001 -0.000001 13.675596 0.751702 -53.886743 0.339569 1.185312 -64.429789 0.000001 0.000000 -0.000002 7.293410 0.539597 -63.097424 1.789041 1.496982 -64.075384 0.000001 -0.000001 0.000002 8.576087 2.151096 -75.202828 -0.208726 0.993879 -58.041547 -0.000001 0.000001 0.000001 10.094442 13.640889 -84.786369 0.887774 0.056052 -64.917574 0.000001 -0.000001 -0.000001 0.000005 0.000002 0.000002 4.320680 2.809933 6.218082 5.929446 -10.451839 63.862788 7.796731 15.629283 -1.919923 4.860239 -0.903412 -5.521117 15.771397 -2.689009 -17.213142 -2.546826 -29.030271 8.278332 0.000000 -0.000001 0.000000 5.755908 -12.666992 14.969760 -2.100543 -2.527673 24.333428 0.000001 0.000001 0.000002 1.351329 -14.784211 18.270027 0.247166 -5.150737 30.888994 0.000001 0.000003 -0.000002 3.709310 -19.658509 15.107409 3.898159 -4.186760 35.866181 -0.000000 0.000001 -0.000003 -0.824140 -23.037514 26.260986 10.722389 -2.560977 39.587548 -0.000000 0.000000 0.000001 0.000001 0.000000 -0.000000 0.000001 -0.000001 -0.000000 0.000001 -0.000001 -0.000000 0.000001 -0.000001 -0.000000 0.000001 -0.000001 -0.000000 0.000001 -0.000001 -0.000000 0.000001 -0.000001 0.000000 0.000001 -0.000001 -0.000000 0.000001 -0.000001 -0.000000 0.000001 -0.000001 -0.000000 0.000001 -0.000001 0.000000 -0.000000 -0.000001 0.000000 -0.000000 -0.000001 0.000000 -0.000000 -0.000001 0.000000 
-5.669333 65.033806 118.871025 -5.647483 -11.456446 -3.730384 0.000000 0.000000 0.000000 -8.415890 14.182053 14.341521 74.867356 7.340718 -2.832072 -4.737578 -1.160006 -2.549328 -0.000001 0.000000 0.000001 -0.000000 0.000000 -0.000001 -29.016966 -4.482051 3.982542 46.129250 -2.363636 -0.125496 -11.483041 -7.430080 -2.609770 -0.000000 -0.000001 -0.000000 -0.000000 0.000000 -0.000000 10.800529 -1.728653 -0.468303 3.045195 -3.670150 4.667621 3.158618 -3.262012 4.833585 -4.922147 10.952593 -5.947580 -2.117499 7.705654 -0.415831 -0.000000 -0.000000 0.000000 -0.000000 -0.000000 0.000000 -0.000000 -0.000000 0.000000 -0.000000 -0.000000 0.000000 -0.000000 -0.000000 0.000000 -0.000000 -0.000000 0.000000 -0.000000 -0.000000 0.000000 -0.000000 -0.000000 0.000000 -0.000000 -0.000000 0.000000 0.632777 -12.016357 -0.076041 -49.683599 -0.119393 -46.176798 16.815663 -65.072701 18.152882 -51.075355 11.227796 5.407144 17.574968 -5.680956 -12.925095 10.824556 26.057114 8.641433 -0.000001 -0.000000 -0.000001 13.641822 0.016777 -53.898744 0.342855 1.187093 -64.654666 -0.000001 0.000001 0.000000 7.465305 0.429271 -63.142223 1.794334 1.493691 -64.270373 0.000002 0.000001 -0.000001 8.571201 2.160492 -75.140243 -0.208568 0.996011 -58.056745 0.000000 -0.000000 -0.000003 9.982618 13.615964 -84.704741 0.887060 0.059760 -64.654468 -0.000001 -0.000000 -0.000001 -0.000000 0.000000 0.000002 4.246718 3.345632 6.732962 4.699414 -7.655637 62.760669 5.038606 17.910165 -0.978362 4.033111 -1.312594 -6.602284 15.770934 -2.687674 -17.213214 -2.531540 -28.897861 8.375081 -0.000001 -0.000001 0.000003 5.594000 -12.135501 14.219261 -2.109618 -2.515733 23.643381 -0.000000 0.000003 0.000001 1.217620 -14.285204 18.210517 0.237853 -5.150729 30.315569 -0.000000 0.000000 -0.000001 2.870208 -19.332798 14.626215 3.902328 -4.181426 35.681537 0.000001 0.000003 -0.000004 -2.053246 -22.256156 25.272200 10.720982 -2.560202 39.307646 -0.000001 0.000001 0.000002 -0.000000 -0.000000 0.000001 0.000000 0.000001 -0.000000 0.000001 -0.000001 -0.000000 0.000000 0.000001 -0.000000 0.000000 0.000001 -0.000000 0.000000 0.000001 -0.000000 0.000001 -0.000001 -0.000000 0.000000 0.000001 -0.000000 0.000000 0.000001 -0.000000 0.000000 0.000001 -0.000000 0.000001 -0.000001 -0.000000 0.000000 0.000000 0.000000 0.000000 0.000000 0.000000 0.000000 0.000000 0.000000 
-5.797217 65.444412 121.479378 -5.760673 -13.287485 -3.675118 0.000000 0.000001 0.000000 -14.216961 15.181818 16.844461 75.375727 5.717450 -3.439754 -14.199488 -1.486516 -2.811801 0.000001 0.000000 0.000000 -0.000001 -0.000000 -0.000000 -26.546413 -4.375532 3.505045 46.573407 -1.023179 -0.018674 -14.231493 -6.510004 -2.664165 0.000000 -0.000002 0.000000 -0.000001 -0.000001 -0.000001 11.003119 -1.286248 -1.027670 3.113009 -2.985997 4.648413 3.206696 -2.568694 4.782180 -4.607232 11.034603 -6.021802 -2.612377 7.773628 -0.580546 -0.000000 -0.000000 -0.000000 -0.000000 -0.000000 -0.000000 -0.000000 -0.000000 -0.000000 -0.000000 -0.000000 0.000000 -0.000000 0.000000 -0.000000 -0.000000 -0.000000 0.000000 -0.000000 0.000000 -0.000000 -0.000000 -0.000000 -0.000000 -0.000000 -0.000000 -0.000000 0.586420 -11.940538 -0.076758 -50.077642 -0.421346 -45.529327 15.666926 -65.105677 17.015780 -51.088627 12.128602 5.433836 17.581279 -5.662377 -12.926925 10.838752 26.095711 8.643271 0.000001 0.000001 -0.000000 13.660166 -0.776731 -54.161720 0.350532 1.193081 -65.151754 0.000003 0.000001 -0.000000 7.729501 0.217762 -63.624995 1.812828 1.483363 -64.953316 0.000001 0.000001 0.000001 8.596940 2.055317 -75.839525 -0.203455 0.998982 -58.792042 -0.000000 0.000000 -0.000003 10.128817 13.649564 -84.812645 0.887492 0.053031 -65.102208 0.000000 -0.000000 0.000003 -0.000000 -0.000002 0.000000 4.116543 4.564753 7.252103 3.370541 -5.565359 61.321411 2.897795 18.761454 -0.148671 3.313811 -0.667232 -7.055107 15.770847 -2.687419 -17.213233 -2.536616 -28.744585 8.466838 -0.000001 -0.000001 -0.000004 5.419587 -11.515363 13.457443 -2.118555 -2.504097 22.910644 0.000001 0.000000 0.000000 1.063003 -13.717515 18.214468 0.232519 -5.150566 29.751225 0.000001 0.000002 -0.000002 1.864121 -18.913683 14.151608 3.913023 -4.171020 35.594073 -0.000001 -0.000001 -0.000004 -3.483191 -21.355748 24.164589 10.719736 -2.559749 38.969429 -0.000000 -0.000001 0.000002 -0.000001 0.000000 0.000000 -0.000000 -0.000000 0.000001 0.000001 0.000001 -0.000001 -0.000000 -0.000000 0.000001 -0.000000 -0.000000 0.000001 -0.000000 -0.000000 0.000001 0.000001 0.000001 -0.000001 -0.000000 -0.000000 0.000001 -0.000000 -0.000000 0.000001 -0.000000 -0.000000 0.000001 0.000001 0.000001 -0.000001 0.000000 0.000001 0.000000 0.000000 0.000001 0.000000 0.000000 0.000001 0.000000 
